# AST/ASF file generated using VICON BodyLanguage
# -----------------------------------------------
:version 1.10
:name VICON
:units
  mass 1.0
  length 0.45
  angle deg
:documentation
   .ast/.asf automatically generated from VICON data using
   VICON BodyBuilder and BodyLanguage model FoxedUp or BRILLIANT.MOD
:root
   order TX TY TZ RX RY RZ
   axis XYZ
   position 0 0 0  
   orientation 0 0 0 
:bonedata
  begin
     id 1 
     name lhipjoint
     direction 0.646657 -0.683706 0.338203 
     length 2.4948 
     axis 0 0 0  XYZ
  end
  begin
     id 2 
     name lfemur
     direction 0.34202 -0.939693 0  
     length 6.79491  
     axis 0 0 20  XYZ
    dof rx ry rz
    limits (-160.0 20.0)
           (-70.0 70.0)
           (-60.0 70.0)
  end
  begin
     id 3 
     name ltibia
     direction 0.34202 -0.939693 0   
     length 7.56807   
     axis 0 0 20   XYZ
    dof rx
    limits (-10.0 170.0)
  end
  begin
     id 4 
     name lfoot
     direction 0.0679796 -0.186772 0.980048   
     length 2.53018   
     axis -90 7.62852e-016 20   XYZ
    dof rx rz
    limits (-45.0 90.0)
           (-70.0 20.0)
  end
  begin
     id 5 
     name ltoes
     direction 1.53625e-011 -4.21881e-011 1   
     length 1.26912   
     axis -90 7.62852e-016 20   XYZ
    dof rx
    limits (-90.0 20.0)
  end
  begin
     id 6 
     name rhipjoint
     direction -0.618868 -0.704065 0.348274   
     length 2.42265  
     axis 0 0 0  XYZ 
  end
  begin
     id 7 
     name rfemur
     direction -0.34202 -0.939693 0   
     length 6.73814   
     axis 0 0 -20   XYZ
    dof rx ry rz
    limits (-160.0 20.0)
           (-70.0 70.0)
           (-70.0 60.0)
  end
  begin
     id 8 
     name rtibia
     direction -0.34202 -0.939693 0   
     length 7.66799   
     axis 0 0 -20   XYZ
    dof rx
    limits (-10.0 170.0)
 end
 begin
     id 9 
     name rfoot
     direction -0.0727352 -0.199838 0.977125   
     length 2.57224  
     axis -90 -7.62852e-016 -20   XYZ
    dof rx rz
    limits (-45.0 90.0)
           (-20.0 70.0)
  end
  begin
     id 10 
     name rtoes
     direction -1.53501e-011 -4.21858e-011 1   
     length 1.28858   
     axis -90 -7.62852e-016 -20   XYZ
    dof rx
    limits (-90.0 20.0)
  end
  begin
     id 11 
     name lowerback
     direction -0.0172471 0.995767 -0.0902851   
     length 2.20206   
     axis 0 0 0   XYZ
    dof rx ry rz
    limits (-20.0 45.0)
           (-30.0 30.0)
           (-30.0 30.0)
  end
  begin
     id 12 
     name upperback
     direction -0.000110737 0.999714 0.0239043   
     length 2.19523   
     axis 0 0 0   XYZ
    dof rx ry rz
    limits (-20.0 45.0)
           (-30.0 30.0)
           (-30.0 30.0)
  end
  begin
     id 13 
     name thorax
     direction 0.00704869 0.997783 0.0661741   
     length 2.21977   
     axis 0 0 0   XYZ
    dof rx ry rz
    limits (-20.0 45.0)
           (-30.0 30.0)
           (-30.0 30.0)
  end
  begin
     id 14 
     name lowerneck
     direction -0.00407501 0.995527 0.0943846   
     length 1.83142   
     axis 0 0 0   XYZ
    dof rx ry rz
    limits (-20.0 45.0)
           (-30.0 30.0)
           (-30.0 30.0)
  end
  begin
     id 15 
     name upperneck
     direction 0.0640586 0.986486 -0.150807   
     length 1.84616   
     axis 0 0 0   XYZ
    dof rx ry rz
    limits (-20.0 45.0)
           (-30.0 30.0)
           (-30.0 30.0)
  end
  begin
     id 16
     name head
     direction 0.0188017 0.99791 -0.0618239  
     length 1.85932  
     axis 0 0 0   XYZ
    dof rx ry rz
    limits (-20.0 45.0)
           (-30.0 30.0)
           (-30.0 30.0)
  end
  begin
     id 17 
     name lclavicle
     direction 0.976074 0.206905 0.066852  
     length 3.81043  
     axis 0 0 0   XYZ
    dof ry rz
    limits (-20.0 10.0)
           (0.0 20.0)
  end
  begin
     id 18 
     name lhumerus
     direction 1 -4.48971e-011 1.86916e-027   
     length 5.37587   
     axis 180 -30 -90   XYZ
    dof rx ry rz
    limits (-60.0 90.0)
           (-90.0 90.0)
           (-90.0 90.0)
  end
  begin
     id 19
     name lradius
     direction 1 -4.48968e-011 1.69187e-027   
     length 3.35977   
     axis 180 -30 -90   XYZ
    dof rx
    limits (-10.0 170.0)
  end
  begin
     id 20
     name lwrist
     direction 1 -4.48968e-011 5.8978e-027   
     length 1.67988   
     axis -3.27506e-015 90 90   XYZ
    dof ry
    limits (-180.0 0.0)
 end
  begin
     id 21 
     name lhand
     direction 1 -4.49028e-011 1.18071e-026   
     length 0.561859   
     axis -7.52654e-015 90 90   XYZ
    dof rx rz
    limits (-90.0 90.0)
           (-45.0 45.0)
  end
  begin
     id 22 
     name lfingers
     direction 1 -4.48927e-011 2.35758e-026   
     length 0.452985   
     axis -1.50534e-014 90 90   XYZ
    dof rx
    limits (0.0 90.0)
  end
  begin
     id 23
     name lthumb
     direction 0.707107 -6.34898e-011 0.707107   
     length 0.650399   
     axis -90 45 5.69224e-014   XYZ
    dof rx rz
    limits (-45.0 45.0)
           (-45.0 45.0)
  end
  begin
     id 24 
     name rclavicle
     direction -0.988403 0.151789 0.00439714   
     length 3.6942  
     axis 0 0 0   XYZ 
    dof ry rz
    limits (-10.0 20.0)
           (-20.0 0.0)
  end
  begin
     id 25 
     name rhumerus
     direction -1 -4.48978e-011 1.62495e-027  
     length 5.22819   
     axis 180 30 90   XYZ
    dof rx ry rz
    limits (-90.0 60.0)
           (-90.0 90.0)
           (-90.0 90.0)
  end
  begin
     id 26 
     name rradius
     direction -1 -4.48961e-011 3.47796e-027   
     length 3.40764   
     axis 180 30 90   XYZ
    dof rx
    limits (-10.0 170.0)
  end
  begin
     id 27 
     name rwrist
     direction -1 -4.48949e-011 5.89602e-027   
     length 1.70382   
     axis -3.27506e-015 -90 -90   XYZ
    dof ry
    limits (-180.0 0.0)
  end
  begin
     id 28
     name rhand
     direction -1 -4.48977e-011 1.17973e-026   
     length 0.583255   
     axis -7.52654e-015 -90 -90   XYZ
    dof rx rz
    limits (-90.0 90.0)
           (-45.0 45.0)
  end
  begin
     id 29
     name rfingers
     direction -1 -4.49099e-011 2.36408e-026   
     length 0.470235   
     axis -1.50534e-014 -90 -90   XYZ
    dof rx
    limits (0.0 90.0)
  end
  begin
     id 30
     name rthumb
     direction -0.707107 -6.35011e-011 0.707107   
     length 0.675167   
     axis -90 -45 -5.69224e-014   XYZ
    dof rx rz
    limits (-45.0 45.0)
           (-45.0 45.0)
  end
:hierarchy
  begin
    root lhipjoint rhipjoint lowerback
    lhipjoint lfemur
    lfemur ltibia
    ltibia lfoot
    lfoot ltoes
    rhipjoint rfemur
    rfemur rtibia
    rtibia rfoot
    rfoot rtoes
    lowerback upperback
    upperback thorax
    thorax lowerneck lclavicle rclavicle
    lowerneck upperneck
    upperneck head
    lclavicle lhumerus
    lhumerus lradius
    lradius lwrist
    lwrist lhand lthumb
    lhand lfingers
    rclavicle rhumerus
    rhumerus rradius
    rradius rwrist
    rwrist rhand rthumb
    rhand rfingers
  end

#!OML:ASF G:\JayActor3\Patient Classification 1\Patient 1\Session 2\male.ASF
:FULLY-SPECIFIED
:DEGREES
2258
root 44.0079 16.7369 -6.99738 2518 62.4641 -1081.95
lowerback -3.37002 1.03092 0.607988
upperback 3.06069 1.35852 -0.0325431
thorax 5.06854 0.702128 -0.268965
lowerneck -8.47351 0.794351 -0.449355
upperneck 3.57848 0.733955 7.62878
head 2.62587 0.647914 2.61954
rclavicle 5.66536e-015 3.18055e-015
rhumerus -32.3013 -7.31236 -86.3102
rradius 31.7792
rwrist -5.94473
rhand -20.9704 6.42703
rfingers 7.12502
rthumb 5.40292 -23.4841
lclavicle 5.66536e-015 3.18055e-015
lhumerus -35.1617 19.7989 77.5435
lradius 17.7767
lwrist 0.99155
lhand -18.5529 16.2161
lfingers 7.12502
lthumb 7.73668 46.0546
rfemur -12.5393 -11.2971 31.5808
rtibia 27.8397
rfoot -25.6958 -17.5526
rtoes 29.6064
lfemur -10.5002 12.816 -16.655
ltibia 55.4956
lfoot -8.86491 4.46946
ltoes -19.1143
2259
root 44.044 16.7323 -6.98599 2518.07 61.5775 -1081.88
lowerback -3.36337 1.07755 0.626602
upperback 3.07347 1.4209 -0.0558238
thorax 5.07988 0.734239 -0.298586
lowerneck -8.50474 0.805898 -0.422931
upperneck 3.73801 0.730697 7.71977
head 2.68645 0.654363 2.64957
rclavicle -4.31114e-014 3.97569e-015
rhumerus -32.2282 -7.0462 -86.5737
rradius 32.1979
rwrist -6.14259
rhand -20.8912 6.45236
rfingers 7.12502
rthumb 5.47937 -23.4568
lclavicle -4.31114e-014 3.97569e-015
lhumerus -35.1748 19.7064 77.5401
lradius 17.8315
lwrist 1.06144
lhand -18.5634 16.2583
lfingers 7.12502
lthumb 7.7266 46.0971
rfemur -12.3879 -10.8951 31.5408
rtibia 27.9496
rfoot -25.5557 -17.1776
rtoes 29.5541
lfemur -10.9754 12.0163 -16.6961
ltibia 55.2259
lfoot -9.79243 5.32368
ltoes -19.0566
2260
root 44.0797 16.7275 -6.97537 2518.17 60.671 -1081.8
lowerback -3.35894 1.12151 0.648719
upperback 3.08119 1.47956 -0.0823444
thorax 5.08742 0.764659 -0.333822
lowerneck -8.50938 0.818949 -0.442258
upperneck 3.86047 0.735464 7.84406
head 2.72955 0.663977 2.69869
rclavicle 5.02925e-014 -5.36719e-015
rhumerus -32.1714 -6.75989 -86.8387
rradius 32.6337
rwrist -6.34092
rhand -20.8087 6.48389
rfingers 7.12502
rthumb 5.55909 -23.4232
lclavicle 5.02925e-014 -5.36719e-015
lhumerus -35.183 19.5985 77.5463
lradius 17.899
lwrist 1.1501
lhand -18.5704 16.2941
lfingers 7.12502
lthumb 7.71977 46.1332
rfemur -12.2646 -10.4908 31.4917
rtibia 28.0877
rfoot -25.4539 -16.7326
rtoes 29.6422
lfemur -11.432 11.1677 -16.744
ltibia 54.8639
lfoot -10.6973 6.13649
ltoes -18.9838
2261
root 44.1149 16.722 -6.96533 2518.26 59.7396 -1081.73
lowerback -3.35397 1.16246 0.680167
upperback 3.08804 1.53376 -0.110838
thorax 5.09411 0.793239 -0.376688
lowerneck -8.51843 0.830622 -0.464493
upperneck 3.9766 0.73939 7.95486
head 2.77137 0.67256 2.74379
rclavicle 3.00538e-014 -2.88238e-015
rhumerus -32.1244 -6.45464 -87.1104
rradius 33.0814
rwrist -6.54189
rhand -20.7251 6.53051
rfingers 7.12502
rthumb 5.63978 -23.3744
lclavicle 3.00538e-014 -2.88238e-015
lhumerus -35.1833 19.4724 77.5617
lradius 17.9808
lwrist 1.26712
lhand -18.5738 16.3274
lfingers 7.12502
lthumb 7.71651 46.1666
rfemur -12.164 -10.0729 31.4448
rtibia 28.2542
rfoot -25.3335 -16.296
rtoes 29.6449
lfemur -11.8695 10.3 -16.7745
ltibia 54.4254
lfoot -11.573 6.85848
ltoes -18.955
2262
root 44.1498 16.7159 -6.95582 2518.35 58.7641 -1081.68
lowerback -3.37128 1.21032 0.727445
upperback 3.10305 1.59644 -0.144894
thorax 5.1229 0.826786 -0.43287
lowerneck -8.52553 0.835437 -0.490591
upperneck 4.07161 0.736407 8.05299
head 2.80597 0.676622 2.78453
rclavicle 1.51076e-014 -4.27387e-015
rhumerus -32.0735 -6.14386 -87.3886
rradius 33.5379
rwrist -6.74452
rhand -20.6504 6.57473
rfingers 7.12502
rthumb 5.71189 -23.3283
lclavicle 1.51076e-014 -4.27387e-015
lhumerus -35.1574 19.3094 77.5971
lradius 18.0795
lwrist 1.41715
lhand -18.5775 16.3685
lfingers 7.12502
lthumb 7.71293 46.2078
rfemur -12.0909 -9.63053 31.4028
rtibia 28.4438
rfoot -25.2061 -15.8501
rtoes 29.6391
lfemur -12.2944 9.44073 -16.7837
ltibia 53.9235
lfoot -12.39 7.44922
ltoes -18.9232
2263
root 44.1842 16.7088 -6.94675 2518.44 57.7467 -1081.63
lowerback -3.4011 1.26052 0.785616
upperback 3.12184 1.66161 -0.181057
thorax 5.16344 0.862061 -0.496728
lowerneck -8.54265 0.836941 -0.506709
upperneck 4.16134 0.729034 8.12775
head 2.84075 0.677843 2.81533
rclavicle -6.7475e-014 5.06901e-015
rhumerus -32.0147 -5.83434 -87.6683
rradius 33.9834
rwrist -6.93388
rhand -20.5854 6.61353
rfingers 7.12502
rthumb 5.77463 -23.2878
lclavicle -6.7475e-014 5.06901e-015
lhumerus -35.1164 19.1181 77.6479
lradius 18.1935
lwrist 1.59282
lhand -18.5859 16.423
lfingers 7.12502
lthumb 7.70482 46.2627
rfemur -12.0417 -9.16476 31.3702
rtibia 28.6518
rfoot -25.0344 -15.4417
rtoes 29.4845
lfemur -12.709 8.59848 -16.7635
ltibia 53.3724
lfoot -13.137 7.87717
ltoes -18.8695
2264
root 44.2184 16.701 -6.93792 2518.51 56.6871 -1081.62
lowerback -3.43055 1.31321 0.861662
upperback 3.1433 1.72898 -0.215238
thorax 5.20732 0.899115 -0.56825
lowerneck -8.55608 0.836576 -0.527588
upperneck 4.23053 0.721262 8.1978
head 2.86789 0.678016 2.84488
rclavicle -2.67738e-014 5.36719e-015
rhumerus -31.9563 -5.51518 -87.9503
rradius 34.4249
rwrist -7.12517
rhand -20.5189 6.66422
rfingers 7.12502
rthumb 5.83882 -23.2353
lclavicle -2.67738e-014 5.36719e-015
lhumerus -35.0612 18.8809 77.7211
lradius 18.3186
lwrist 1.81489
lhand -18.6094 16.4926
lfingers 7.12502
lthumb 7.68215 46.3331
rfemur -12.0043 -8.67631 31.3566
rtibia 28.8736
rfoot -24.8304 -15.0645
rtoes 29.2146
lfemur -13.1068 7.77862 -16.6969
ltibia 52.783
lfoot -13.8099 8.12501
ltoes -18.7586
2265
root 44.252 16.6923 -6.9294 2518.55 55.5938 -1081.62
lowerback -3.44327 1.36508 0.946416
upperback 3.15765 1.79461 -0.245117
thorax 5.23461 0.935501 -0.640785
lowerneck -8.55591 0.837889 -0.548932
upperneck 4.29103 0.717108 8.25621
head 2.88923 0.678979 2.87026
rclavicle 5.54237e-014 -7.95139e-015
rhumerus -31.9076 -5.18357 -88.2286
rradius 34.8527
rwrist -7.31853
rhand -20.4592 6.69432
rfingers 7.12502
rthumb 5.89647 -23.2036
lclavicle 5.54237e-014 -7.95139e-015
lhumerus -35.0152 18.6113 77.8078
lradius 18.4586
lwrist 2.06928
lhand -18.6396 16.5785
lfingers 7.12502
lthumb 7.653 46.42
rfemur -11.9763 -8.17121 31.3564
rtibia 29.1094
rfoot -24.6123 -14.6936
rtoes 28.8915
lfemur -13.4845 6.98641 -16.5906
ltibia 52.1631
lfoot -14.4203 8.21165
ltoes -18.6804
2266
root 44.2853 16.6827 -6.92108 2518.58 54.4824 -1081.64
lowerback -3.42716 1.40833 1.02997
upperback 3.16001 1.84865 -0.268241
thorax 5.23261 0.965834 -0.707495
lowerneck -8.54426 0.838622 -0.572057
upperneck 4.35045 0.713255 8.29997
head 2.90791 0.67914 2.89069
rclavicle 1.27968e-014 -6.36111e-015
rhumerus -31.8851 -4.8266 -88.5012
rradius 35.2731
rwrist -7.51244
rhand -20.3929 6.7322
rfingers 7.12502
rthumb 5.96052 -23.164
lclavicle 1.27968e-014 -6.36111e-015
lhumerus -34.9929 18.3371 77.8928
lradius 18.6059
lwrist 2.33074
lhand -18.6746 16.6755
lfingers 7.12502
lthumb 7.6192 46.5182
rfemur -11.951 -7.6562 31.3637
rtibia 29.3597
rfoot -24.4092 -14.3082
rtoes 28.5986
lfemur -13.8359 6.21929 -16.4509
ltibia 51.5172
lfoot -14.9768 8.17354
ltoes -18.6808
2267
root 44.3182 16.672 -6.91296 2518.61 53.3691 -1081.66
lowerback -3.37714 1.43858 1.09962
upperback 3.14923 1.88612 -0.284553
thorax 5.19658 0.987101 -0.761835
lowerneck -8.52131 0.839337 -0.595112
upperneck 4.41264 0.710223 8.32482
head 2.9252 0.678707 2.90446
rclavicle 7.51033e-014 -5.1684e-015
rhumerus -31.896 -4.43433 -88.766
rradius 35.6906
rwrist -7.71728
rhand -20.3239 6.77349
rfingers 7.12502
rthumb 6.0271 -23.1208
lclavicle 7.51033e-014 -5.1684e-015
lhumerus -35.0052 18.0756 77.9693
lradius 18.765
lwrist 2.57777
lhand -18.7073 16.7726
lfingers 7.12502
lthumb 7.58772 46.6165
rfemur -11.9254 -7.14793 31.3665
rtibia 29.6261
rfoot -24.2415 -13.878
rtoes 28.4178
lfemur -14.1582 5.4702 -16.2938
ltibia 50.8519
lfoot -15.4917 8.05411
ltoes -18.7977
2268
root 44.3508 16.6607 -6.90491 2518.64 52.2493 -1081.66
lowerback -3.31345 1.45779 1.15047
upperback 3.13074 1.90998 -0.299185
thorax 5.14375 1.00074 -0.805547
lowerneck -8.49422 0.838204 -0.616896
upperneck 4.47365 0.705456 8.33408
head 2.94126 0.67664 2.9124
rclavicle -2.38666e-014 6.95746e-015
rhumerus -31.9288 -4.01477 -89.0237
rradius 36.1012
rwrist -7.9207
rhand -20.2424 6.80835
rfingers 7.12502
rthumb 6.10582 -23.0837
lclavicle -2.38666e-014 6.95746e-015
lhumerus -35.0376 17.8548 78.0205
lradius 18.9247
lwrist 2.75959
lhand -18.7096 16.8665
lfingers 7.12502
lthumb 7.58542 46.7104
rfemur -11.9062 -6.65284 31.3556
rtibia 29.9046
rfoot -24.1139 -13.3917
rtoes 28.3838
lfemur -14.4584 4.74046 -16.1378
ltibia 50.1728
lfoot -15.9539 7.9161
ltoes -19.0979
